<?xml version="1.0" encoding="utf-8"?>
<!-- Generator: Adobe Illustrator 26.0.1, SVG Export Plug-In . SVG Version: 6.00 Build 0)  -->
<svg version="1.1" id="Layer_1" xmlns="http://www.w3.org/2000/svg" xmlns:xlink="http://www.w3.org/1999/xlink" x="0px" y="0px"
	 viewBox="0 0 92.8 40.5" style="enable-background:new 0 0 92.8 40.5;" xml:space="preserve">
<style type="text/css">
	.st0{clip-path:url(#SVGID_00000064338151225470666700000011649758259444135087_);}
	.st1{fill:url(#SVGID_00000081611325182728712050000001562098080135710381_);}
	.st2{clip-path:url(#SVGID_00000029046971926761877190000003924811757523699106_);}
	.st3{fill:url(#SVGID_00000097475672151863879300000011850393488231620745_);}
	.st4{clip-path:url(#SVGID_00000092432820844756182190000007601746161877577624_);}
	.st5{fill:url(#SVGID_00000085212039623406550720000016502797716056795814_);}
	.st6{clip-path:url(#SVGID_00000131341184153750091150000007673552063905290939_);}
	.st7{fill:url(#SVGID_00000120521485528824360720000011807666715452163747_);}
	.st8{clip-path:url(#SVGID_00000011734838042193505740000012421604460000419244_);}
	.st9{fill:url(#SVGID_00000068669633279429335190000001707538528680752535_);}
	.st10{clip-path:url(#SVGID_00000129923781027881117650000011629528361558670736_);}
	.st11{fill:url(#SVGID_00000030455332798202984180000003458898172634454956_);}
	.st12{clip-path:url(#SVGID_00000183940938278318493950000015787234580705828502_);}
	.st13{fill:url(#SVGID_00000144303131315572429620000016403310991320459447_);}
	.st14{clip-path:url(#SVGID_00000005245694096161584560000016095392439146227627_);}
	.st15{fill:url(#SVGID_00000104707879597589865770000001851750858156027805_);}
	.st16{clip-path:url(#SVGID_00000089560752129362134200000001439663211464591773_);}
	.st17{fill:url(#SVGID_00000132786879967060097260000016662918849911122066_);}
	.st18{clip-path:url(#SVGID_00000170254902725869190630000013954225774575657628_);}
	.st19{fill:url(#SVGID_00000073696299259785652660000005067951103249858954_);}
	.st20{clip-path:url(#SVGID_00000177479678315068659180000009349677842919093160_);}
	.st21{fill:url(#SVGID_00000152945419015320569740000013461233286516846747_);}
	.st22{clip-path:url(#SVGID_00000182486890660448593590000010786272378183818136_);}
	.st23{fill:url(#SVGID_00000091004532644569545330000004810751771730072507_);}
	.st24{clip-path:url(#SVGID_00000158725694912695232670000016781991094982054822_);}
	.st25{fill:url(#SVGID_00000047744003189256802760000015738118787523027605_);}
	.st26{clip-path:url(#SVGID_00000156585235287367166290000003203727955487785393_);}
	.st27{fill:url(#SVGID_00000067936247800013688460000003151400179916264081_);}
	.st28{clip-path:url(#SVGID_00000171720182256262473710000007430996731454636692_);}
	.st29{fill:url(#SVGID_00000095335468609687761270000010756220722284132996_);}
	.st30{clip-path:url(#SVGID_00000099643263704405708210000004614539723986827946_);}
	.st31{fill:url(#SVGID_00000114031832213504767080000004931552138369718463_);}
	.st32{clip-path:url(#SVGID_00000098212569358559388600000014364283537946396321_);}
	.st33{fill:url(#SVGID_00000174586733672553318510000007342950805279027091_);}
	.st34{clip-path:url(#SVGID_00000049932772016705849150000008513767534894885283_);}
	.st35{fill:url(#SVGID_00000043444192649535704360000016831632218544997280_);}
	.st36{fill:#3A3A39;}
</style>
<g id="Layer_2_00000003064111633246099590000014094344726897881221_">
	<g id="Layer_1-2">
		<g>
			<defs>
				<polygon id="SVGID_1_" points="9.8,13.7 7.1,19 9.8,23.3 14.4,16.6 				"/>
			</defs>
			<clipPath id="SVGID_00000104700559463909297340000018168999641517925013_">
				<use xlink:href="#SVGID_1_"  style="overflow:visible;"/>
			</clipPath>
			<g style="clip-path:url(#SVGID_00000104700559463909297340000018168999641517925013_);">
				
					<linearGradient id="SVGID_00000042720822158373990210000018437288621264462208_" gradientUnits="userSpaceOnUse" x1="-1724.5354" y1="-352.8809" x2="-1724.4115" y2="-352.8809" gradientTransform="matrix(7.054 -117.0076 117.0076 7.054 53465.0195 -199270.6562)">
					<stop  offset="0" style="stop-color:#E2E555"/>
					<stop  offset="1" style="stop-color:#A5BD3C"/>
				</linearGradient>
				<polygon style="fill:url(#SVGID_00000042720822158373990210000018437288621264462208_);" points="6.5,23.3 7.1,13.2 15,13.7 
					14.4,23.8 				"/>
			</g>
		</g>
		<g>
			<defs>
				<polyline id="SVGID_00000035502969097267966780000009519048224937737346_" points="3.6,3.9 5,5.7 8.9,7.2 8.9,7.2 7.8,5.3 
					7.1,4.2 1.5,0 3.6,3.9 				"/>
			</defs>
			<clipPath id="SVGID_00000072969548340453717550000012811218082103719843_">
				<use xlink:href="#SVGID_00000035502969097267966780000009519048224937737346_"  style="overflow:visible;"/>
			</clipPath>
			<g style="clip-path:url(#SVGID_00000072969548340453717550000012811218082103719843_);">
				
					<linearGradient id="SVGID_00000062166705934526132290000003367775239413934267_" gradientUnits="userSpaceOnUse" x1="-1723.2722" y1="-353.0335" x2="-1723.1483" y2="-353.0335" gradientTransform="matrix(59.75 0 0 59.75 102967.6875 21097.3457)">
					<stop  offset="0" style="stop-color:#E2E555"/>
					<stop  offset="1" style="stop-color:#A5BD3C"/>
				</linearGradient>
				<rect x="1.5" style="fill:url(#SVGID_00000062166705934526132290000003367775239413934267_);" width="7.4" height="7.2"/>
			</g>
		</g>
		<g>
			<defs>
				<polygon id="SVGID_00000085948686351818128090000013363153837433722767_" points="14.4,16.6 16.9,24 22.7,23.9 22.7,23.9 
					18.5,16.9 16.1,11 				"/>
			</defs>
			<clipPath id="SVGID_00000169545568595004938890000009455310146166983557_">
				<use xlink:href="#SVGID_00000085948686351818128090000013363153837433722767_"  style="overflow:visible;"/>
			</clipPath>
			<g style="clip-path:url(#SVGID_00000169545568595004938890000009455310146166983557_);">
				
					<linearGradient id="SVGID_00000034797988945408573700000007054053972213499286_" gradientUnits="userSpaceOnUse" x1="-1724.5723" y1="-353.161" x2="-1724.4482" y2="-353.161" gradientTransform="matrix(-33.2807 -125.078 125.078 -33.2807 -13201.4219 -227433.4219)">
					<stop  offset="0" style="stop-color:#E2E555"/>
					<stop  offset="1" style="stop-color:#A5BD3C"/>
				</linearGradient>
				<polygon style="fill:url(#SVGID_00000034797988945408573700000007054053972213499286_);" points="11.2,11.9 22.2,8.9 26,23.1 
					14.9,26.1 				"/>
			</g>
		</g>
		<g>
			<defs>
				<polyline id="SVGID_00000033366651098025371290000000421125320054241413_" points="11.4,5.1 12.6,5.8 13.3,6.1 13.4,3.2 
					11.4,5.1 				"/>
			</defs>
			<clipPath id="SVGID_00000161609583501503583290000014165413266487522734_">
				<use xlink:href="#SVGID_00000033366651098025371290000000421125320054241413_"  style="overflow:visible;"/>
			</clipPath>
			<g style="clip-path:url(#SVGID_00000161609583501503583290000014165413266487522734_);">
				
					<linearGradient id="SVGID_00000148634183280671245450000003253024456482912923_" gradientUnits="userSpaceOnUse" x1="-1726.048" y1="-353.1415" x2="-1725.9241" y2="-353.1415" gradientTransform="matrix(-44.3729 -107.924 107.924 -44.3729 -38465.7773 -201949.375)">
					<stop  offset="0" style="stop-color:#E2E555"/>
					<stop  offset="1" style="stop-color:#A5BD3C"/>
				</linearGradient>
				<polygon style="fill:url(#SVGID_00000148634183280671245450000003253024456482912923_);" points="10.4,3.6 13.1,2.5 14.4,5.7 
					11.7,6.8 				"/>
			</g>
		</g>
		<g>
			<defs>
				<polygon id="SVGID_00000132053037738732989690000014301700761952237709_" points="9.8,23.3 8.8,29.4 15.4,31.1 16.9,24 
					14.4,16.6 				"/>
			</defs>
			<clipPath id="SVGID_00000052070758790250442830000016600720943472497333_">
				<use xlink:href="#SVGID_00000132053037738732989690000014301700761952237709_"  style="overflow:visible;"/>
			</clipPath>
			<g style="clip-path:url(#SVGID_00000052070758790250442830000016600720943472497333_);">
				
					<linearGradient id="SVGID_00000043457460103352485270000013682169935542870446_" gradientUnits="userSpaceOnUse" x1="-1724.4072" y1="-353.2157" x2="-1724.2833" y2="-353.2157" gradientTransform="matrix(19.1615 -136.1684 136.1684 19.1615 81151.1562 -228012.9688)">
					<stop  offset="0" style="stop-color:#E2E555"/>
					<stop  offset="1" style="stop-color:#A5BD3C"/>
				</linearGradient>
				<polygon style="fill:url(#SVGID_00000043457460103352485270000013682169935542870446_);" points="6.8,30.8 9,15.4 18.9,16.8 
					16.7,32.2 				"/>
			</g>
		</g>
		<g>
			<defs>
				<polyline id="SVGID_00000170973692728981027750000016483844511247582142_" points="16,5.7 13.6,9.5 14.8,9.7 16.8,6.3 21.8,2.9 
					16,5.7 				"/>
			</defs>
			<clipPath id="SVGID_00000173152844448114563260000008081167408130941838_">
				<use xlink:href="#SVGID_00000170973692728981027750000016483844511247582142_"  style="overflow:visible;"/>
			</clipPath>
			<g style="clip-path:url(#SVGID_00000173152844448114563260000008081167408130941838_);">
				
					<linearGradient id="SVGID_00000051341142511109825280000000242581988950711965_" gradientUnits="userSpaceOnUse" x1="-1724.7061" y1="-353.3138" x2="-1724.5822" y2="-353.3138" gradientTransform="matrix(66.37 0 0 66.37 114482.2734 23455.7637)">
					<stop  offset="0" style="stop-color:#E2E555"/>
					<stop  offset="1" style="stop-color:#A5BD3C"/>
				</linearGradient>
				
					<rect x="13.6" y="2.9" style="fill:url(#SVGID_00000051341142511109825280000000242581988950711965_);" width="8.2" height="6.8"/>
			</g>
		</g>
		<g>
			<defs>
				<polygon id="SVGID_00000043426239465526302280000000941480515740760461_" points="16.8,6.3 14.8,9.7 18.6,8.3 19.9,6.6 
					21.8,2.9 				"/>
			</defs>
			<clipPath id="SVGID_00000005950444715669095130000016124173038151784604_">
				<use xlink:href="#SVGID_00000043426239465526302280000000941480515740760461_"  style="overflow:visible;"/>
			</clipPath>
			<g style="clip-path:url(#SVGID_00000005950444715669095130000016124173038151784604_);">
				
					<linearGradient id="SVGID_00000111164762636352428580000007989194156543491729_" gradientUnits="userSpaceOnUse" x1="-1724.8937" y1="-353.6859" x2="-1724.7697" y2="-353.6859" gradientTransform="matrix(-30.2599 98.8522 -98.8522 -30.2599 -87136.9766 159805.4688)">
					<stop  offset="0" style="stop-color:#E2E555"/>
					<stop  offset="1" style="stop-color:#A5BD3C"/>
				</linearGradient>
				<polygon style="fill:url(#SVGID_00000111164762636352428580000007989194156543491729_);" points="12.9,9.1 15.4,1 23.7,3.5 
					21.2,11.7 				"/>
			</g>
		</g>
		<g>
			<defs>
				<polygon id="SVGID_00000093886985032084637720000013495619831708731829_" points="7.1,4.2 7.8,5.2 7.6,2.9 1.5,0 				"/>
			</defs>
			<clipPath id="SVGID_00000121244263850650725900000005726395828848755082_">
				<use xlink:href="#SVGID_00000093886985032084637720000013495619831708731829_"  style="overflow:visible;"/>
			</clipPath>
			<g style="clip-path:url(#SVGID_00000121244263850650725900000005726395828848755082_);">
				
					<linearGradient id="SVGID_00000152965320907302134150000008679589762423615392_" gradientUnits="userSpaceOnUse" x1="-1722.8235" y1="-352.7712" x2="-1722.6995" y2="-352.7712" gradientTransform="matrix(50.92 0 0 50.92 87727.9141 17965.7324)">
					<stop  offset="0" style="stop-color:#E2E555"/>
					<stop  offset="1" style="stop-color:#A5BD3C"/>
				</linearGradient>
				<rect x="1.5" style="fill:url(#SVGID_00000152965320907302134150000008679589762423615392_);" width="6.3" height="5.2"/>
			</g>
		</g>
		<g>
			<defs>
				<polygon id="SVGID_00000124162919696462205790000004128510984401438138_" points="7.8,5.2 8.9,7.2 10.2,7 7.6,2.9 				"/>
			</defs>
			<clipPath id="SVGID_00000054964652630441391530000011946896003930444959_">
				<use xlink:href="#SVGID_00000124162919696462205790000004128510984401438138_"  style="overflow:visible;"/>
			</clipPath>
			<g style="clip-path:url(#SVGID_00000054964652630441391530000011946896003930444959_);">
				
					<linearGradient id="SVGID_00000121979540635698211030000017643963116157246096_" gradientUnits="userSpaceOnUse" x1="-1720.7202" y1="-352.3141" x2="-1720.5962" y2="-352.3141" gradientTransform="matrix(20.76 0 0 20.76 35729.2266 7319.0762)">
					<stop  offset="0" style="stop-color:#E2E555"/>
					<stop  offset="1" style="stop-color:#A5BD3C"/>
				</linearGradient>
				
					<rect x="7.6" y="2.9" style="fill:url(#SVGID_00000121979540635698211030000017643963116157246096_);" width="2.6" height="4.3"/>
			</g>
		</g>
		<g>
			<defs>
				<polygon id="SVGID_00000152985405589488988480000002114167930773896380_" points="4.5,18.4 0.9,24.2 0.9,24.3 8.8,29.4 
					9.8,23.3 7.1,19 4.5,18.4 				"/>
			</defs>
			<clipPath id="SVGID_00000098186958402638072310000013192192509353999500_">
				<use xlink:href="#SVGID_00000152985405589488988480000002114167930773896380_"  style="overflow:visible;"/>
			</clipPath>
			<g style="clip-path:url(#SVGID_00000098186958402638072310000013192192509353999500_);">
				
					<linearGradient id="SVGID_00000051365739155299549470000015272139330062553239_" gradientUnits="userSpaceOnUse" x1="-1726.504" y1="-353.8095" x2="-1726.38" y2="-353.8095" gradientTransform="matrix(-53.4512 89.7721 -89.7721 -53.4512 -124037.0234 136098.1562)">
					<stop  offset="0" style="stop-color:#E2E555"/>
					<stop  offset="1" style="stop-color:#A5BD3C"/>
				</linearGradient>
				<polygon style="fill:url(#SVGID_00000051365739155299549470000015272139330062553239_);" points="-3.9,26.5 3.3,14.5 14.6,21.2 
					7.5,33.3 				"/>
			</g>
		</g>
		<g>
			<defs>
				<polygon id="SVGID_00000168079532087595179860000010194139945606647432_" points="6.2,33.5 8,40.4 8.1,40.4 16.1,36 15.4,31.1 
					8.8,29.4 				"/>
			</defs>
			<clipPath id="SVGID_00000159449451646788802600000013515955734858391210_">
				<use xlink:href="#SVGID_00000168079532087595179860000010194139945606647432_"  style="overflow:visible;"/>
			</clipPath>
			<g style="clip-path:url(#SVGID_00000159449451646788802600000013515955734858391210_);">
				
					<linearGradient id="SVGID_00000168806805047414753810000010911841423059907204_" gradientUnits="userSpaceOnUse" x1="-1724.2412" y1="-355.9015" x2="-1724.1172" y2="-355.9015" gradientTransform="matrix(80.23 0 0 80.23 138342.5312 28588.8594)">
					<stop  offset="0" style="stop-color:#E2E555"/>
					<stop  offset="1" style="stop-color:#A5BD3C"/>
				</linearGradient>
				
					<rect x="6.2" y="29.4" style="fill:url(#SVGID_00000168806805047414753810000010911841423059907204_);" width="9.9" height="11"/>
			</g>
		</g>
		<g>
			<defs>
				<polygon id="SVGID_00000047775490320799859240000007297113900358624697_" points="8.1,40.4 15.7,40.5 21.3,37.1 16.1,36 				"/>
			</defs>
			<clipPath id="SVGID_00000113347168166328269590000010303718544036594338_">
				<use xlink:href="#SVGID_00000047775490320799859240000007297113900358624697_"  style="overflow:visible;"/>
			</clipPath>
			<g style="clip-path:url(#SVGID_00000113347168166328269590000010303718544036594338_);">
				
					<linearGradient id="SVGID_00000095326488712117494300000007318651290820967349_" gradientUnits="userSpaceOnUse" x1="-1723.332" y1="-355.0537" x2="-1723.208" y2="-355.0537" gradientTransform="matrix(75.6464 -56.4878 56.4878 75.6464 150429.9062 -70446.9297)">
					<stop  offset="0" style="stop-color:#E2E555"/>
					<stop  offset="1" style="stop-color:#A5BD3C"/>
				</linearGradient>
				<polygon style="fill:url(#SVGID_00000095326488712117494300000007318651290820967349_);" points="5.9,37.6 16.5,29.7 23.4,38.9 
					12.8,46.8 				"/>
			</g>
		</g>
		<g>
			<defs>
				<polygon id="SVGID_00000159468767645399147100000011785227339212411559_" points="16.9,24 15.4,31.1 16.1,36 21.3,37.1 23.4,31 
					22.7,23.9 				"/>
			</defs>
			<clipPath id="SVGID_00000021804918121681878200000005859105531554107017_">
				<use xlink:href="#SVGID_00000159468767645399147100000011785227339212411559_"  style="overflow:visible;"/>
			</clipPath>
			<g style="clip-path:url(#SVGID_00000021804918121681878200000005859105531554107017_);">
				
					<linearGradient id="SVGID_00000005955325741011090260000002626852182858208904_" gradientUnits="userSpaceOnUse" x1="-1724.1464" y1="-353.4482" x2="-1724.0223" y2="-353.4482" gradientTransform="matrix(0 -161.38 161.38 0 57058.8398 -278203.2812)">
					<stop  offset="0" style="stop-color:#E2E555"/>
					<stop  offset="1" style="stop-color:#A5BD3C"/>
				</linearGradient>
				
					<rect x="15.4" y="23.9" style="fill:url(#SVGID_00000005955325741011090260000002626852182858208904_);" width="8" height="13.2"/>
			</g>
		</g>
		<g>
			<defs>
				<polygon id="SVGID_00000013185924658663051770000002833508155713920390_" points="3.7,37.6 8,40.4 6.2,33.5 0.1,31.4 				"/>
			</defs>
			<clipPath id="SVGID_00000113322991927282265680000006348535976949237420_">
				<use xlink:href="#SVGID_00000013185924658663051770000002833508155713920390_"  style="overflow:visible;"/>
			</clipPath>
			<g style="clip-path:url(#SVGID_00000113322991927282265680000006348535976949237420_);">
				
					<linearGradient id="SVGID_00000183937750779356072610000009397134122289060006_" gradientUnits="userSpaceOnUse" x1="-1723.944" y1="-351.8331" x2="-1723.8199" y2="-351.8331" gradientTransform="matrix(-47.4124 -103.8928 103.8928 -47.4124 -45176.2891 -195744.0156)">
					<stop  offset="0" style="stop-color:#E2E555"/>
					<stop  offset="1" style="stop-color:#A5BD3C"/>
				</linearGradient>
				<polygon style="fill:url(#SVGID_00000183937750779356072610000009397134122289060006_);" points="-3.3,32.9 6.6,28.4 11.4,38.8 
					1.4,43.4 				"/>
			</g>
		</g>
		<g>
			<defs>
				<polyline id="SVGID_00000060725218382017229830000006799580435448901000_" points="11.2,10.1 12.6,5.8 11.4,5.1 11.2,10.1 				
					"/>
			</defs>
			<clipPath id="SVGID_00000111153394972479242810000008511213267636915077_">
				<use xlink:href="#SVGID_00000060725218382017229830000006799580435448901000_"  style="overflow:visible;"/>
			</clipPath>
			<g style="clip-path:url(#SVGID_00000111153394972479242810000008511213267636915077_);">
				
					<linearGradient id="SVGID_00000038383759315284690410000010479963961674285210_" gradientUnits="userSpaceOnUse" x1="-1719.4138" y1="-353.3766" x2="-1719.2899" y2="-353.3766" gradientTransform="matrix(11.11 0 0 11.11 19114.2617 3933.6282)">
					<stop  offset="0" style="stop-color:#E2E555"/>
					<stop  offset="1" style="stop-color:#A5BD3C"/>
				</linearGradient>
				
					<rect x="11.2" y="5.1" style="fill:url(#SVGID_00000038383759315284690410000010479963961674285210_);" width="1.4" height="5"/>
			</g>
		</g>
		<g>
			<defs>
				<polygon id="SVGID_00000054963062700833434450000013721490779542003854_" points="11.2,10.1 10,9.9 6.1,12.7 9.8,13.7 
					14.4,16.6 16.1,11 16,10.9 13,10.4 13.3,6.1 12.6,5.8 				"/>
			</defs>
			<clipPath id="SVGID_00000151531551082985108400000016358825089875483571_">
				<use xlink:href="#SVGID_00000054963062700833434450000013721490779542003854_"  style="overflow:visible;"/>
			</clipPath>
			<g style="clip-path:url(#SVGID_00000151531551082985108400000016358825089875483571_);">
				
					<linearGradient id="SVGID_00000012470658912562610390000007653300818081925775_" gradientUnits="userSpaceOnUse" x1="-1725.0599" y1="-352.954" x2="-1724.936" y2="-352.954" gradientTransform="matrix(-26.1592 -134.9264 134.9264 -26.1592 2509.1516 -241970.2188)">
					<stop  offset="0" style="stop-color:#E2E555"/>
					<stop  offset="1" style="stop-color:#A5BD3C"/>
				</linearGradient>
				<polygon style="fill:url(#SVGID_00000012470658912562610390000007653300818081925775_);" points="4,6.2 15.7,3.9 18,16.2 
					6.4,18.4 				"/>
			</g>
		</g>
		<g>
			<defs>
				<polygon id="SVGID_00000002365663488647113990000014068647918339250329_" points="5.9,12.8 4.5,18.4 7.1,19 9.8,13.7 6.1,12.7 
									"/>
			</defs>
			<clipPath id="SVGID_00000127019213056898450540000007638896598521958581_">
				<use xlink:href="#SVGID_00000002365663488647113990000014068647918339250329_"  style="overflow:visible;"/>
			</clipPath>
			<g style="clip-path:url(#SVGID_00000127019213056898450540000007638896598521958581_);">
				
					<linearGradient id="SVGID_00000114068904867073144970000013190989453953453754_" gradientUnits="userSpaceOnUse" x1="-1726.183" y1="-354.2357" x2="-1726.0591" y2="-354.2357" gradientTransform="matrix(-43.5789 91.4471 -91.4471 -43.5789 -107610.25 142429.9062)">
					<stop  offset="0" style="stop-color:#E2E555"/>
					<stop  offset="1" style="stop-color:#A5BD3C"/>
				</linearGradient>
				<polygon style="fill:url(#SVGID_00000114068904867073144970000013190989453953453754_);" points="2,17.9 5.5,10.6 12.3,13.9 
					8.8,21.1 				"/>
			</g>
		</g>
		<g>
			<defs>
				<polygon id="SVGID_00000088101235075050080630000007078704827318640817_" points="0,31.2 0.1,31.4 6.2,33.5 8.8,29.4 0.9,24.3 
									"/>
			</defs>
			<clipPath id="SVGID_00000090977733316507127880000005277329485721520786_">
				<use xlink:href="#SVGID_00000088101235075050080630000007078704827318640817_"  style="overflow:visible;"/>
			</clipPath>
			<g style="clip-path:url(#SVGID_00000090977733316507127880000005277329485721520786_);">
				
					<linearGradient id="SVGID_00000039836005473841652350000012730765980050742685_" gradientUnits="userSpaceOnUse" x1="-1723.3146" y1="-352.2967" x2="-1723.1907" y2="-352.2967" gradientTransform="matrix(8.0679 -80.6876 80.6876 8.0679 42333.6836 -136176.0781)">
					<stop  offset="0" style="stop-color:#E2E555"/>
					<stop  offset="1" style="stop-color:#A5BD3C"/>
				</linearGradient>
				<polygon style="fill:url(#SVGID_00000039836005473841652350000012730765980050742685_);" points="-0.9,33.4 0.1,23.4 9.8,24.4 
					8.8,34.4 				"/>
			</g>
		</g>
		<path class="st36" d="M31.6,14.6h-2v-3.3h9.8c4,0,6.8,2.8,6.8,7s-2.8,7-6.8,7h-3.9v7.4h-3.9V14.6z M38.7,21.8
			c2.2,0,3.5-1.4,3.5-3.7s-1.3-3.6-3.4-3.6h-3.2v7.3H38.7z"/>
		<path class="st36" d="M55,16.9c4.4,0,6.8,3.2,6.8,7.3c0,0.5-0.1,1.4-0.1,1.4H51.1c0.3,2.7,2.3,4.1,4.6,4.1c2.5,0,4.3-1.7,4.3-1.7
			l1.6,2.6c-1.7,1.5-3.9,2.3-6.2,2.3c-5.1,0-8.2-3.7-8.2-8C47.2,20.2,50.4,16.9,55,16.9 M57.9,22.9c-0.1-1.8-1.3-3.1-2.9-3.1
			c-2,0-3.3,1.2-3.8,3.1H57.9z"/>
		<path class="st36" d="M73.7,22.9h0.5v-0.1c0-2.2-0.9-3-2.8-3c-0.7,0-2,0.2-2,1v0.8h-3.5V20c0-2.9,4-3.2,5.6-3.2
			c5.1,0,6.6,2.7,6.6,6.1v5.7c0,0.3,0.2,0.6,0.5,0.7c0,0,0.1,0,0.1,0h1.2v3.2h-3.4c-1.4,0-2-0.8-2-1.7c0-0.4,0-0.7,0-0.7h-0.1
			c0,0-1.2,2.7-4.6,2.7c-2.7,0-5.2-1.7-5.2-4.8C64.6,23.3,71.2,22.9,73.7,22.9 M70.8,29.9c2,0,3.5-2.2,3.5-4v-0.4h-0.7
			c-2,0-5.1,0.3-5.1,2.4C68.4,29,69.2,29.9,70.8,29.9"/>
		<path class="st36" d="M83.5,21.1c0.1-0.3-0.2-0.6-0.5-0.7c-0.1,0-0.1,0-0.2,0h-1.2v-3.2h3.5c1.4,0,2,0.6,2,1.9V20
			c0,0.3,0,0.6-0.1,1h0.1c0.7-2.2,2.5-3.9,4.9-3.9c0.2,0,0.5,0,0.7,0.1v3.8c-0.3,0-0.6-0.1-0.9-0.1c-2,0-3.7,1.3-4.2,3.2
			c-0.2,0.8-0.3,1.7-0.3,2.5v6.1h-3.8V21.1z"/>
	</g>
</g>
</svg>
